<svg xmlns="http://www.w3.org/2000/svg" xmlns:xlink="http://www.w3.org/1999/xlink" width="18" height="20" viewBox="0 0 18 20"><defs><path id="xg7sa" d="M187.51 831.81c-1.06 1.66-2.4 2.57-3.77 2.57-.44 0-.86-.13-1.22-.38l-.52-.36-.52.36c-.36.25-.78.38-1.22.38-1.37 0-2.7-.91-3.77-2.57a12.03 12.03 0 0 1-1.75-6.35c0-1.94 1.7-3.51 3.78-3.51.66 0 1.3.16 1.87.46 1 .53 2.22.53 3.21 0 .57-.3 1.22-.46 1.88-.46 2.08 0 3.78 1.57 3.78 3.5 0 2.32-.64 4.64-1.75 6.36zm-9.28-14.19h.29c1.44 0 2.6 1.1 2.6 2.43v.27h-.28c-1.44 0-2.61-1.09-2.61-2.43zm7.25 2.7c-.79 0-1.57.16-2.28.47a3.8 3.8 0 0 1 3.44-2.09v-1.62a5.7 5.7 0 0 0-4.02 1.63 4.35 4.35 0 0 0-4.1-2.71h-2.04v1.9c0 .95.36 1.83.96 2.52a5.25 5.25 0 0 0-4.44 5.04c0 2.6.73 5.21 2 7.19 1.38 2.16 3.25 3.35 5.26 3.35.61 0 1.2-.14 1.74-.4.53.26 1.13.4 1.74.4 2 0 3.88-1.2 5.27-3.35a13.6 13.6 0 0 0 1.99-7.2c0-2.82-2.47-5.13-5.52-5.13z"/></defs><g><g transform="translate(-173 -816)"><use xlink:href="#xg7sa"/></g></g></svg>