<svg xmlns="http://www.w3.org/2000/svg" xmlns:xlink="http://www.w3.org/1999/xlink" width="16" height="20" viewBox="0 0 16 20"><defs><path id="7l18a" d="M1175.12 41.1l1.17-1.84a.81.81 0 0 0 .12-.43v-6.7c0-2.2 2.58-4 4.59-4 2 0 4.59 1.8 4.59 4v6.7c0 .15.04.3.12.43l1.16 1.84h-11.75zm5.88 2.34c-.51 0-.96-.31-1.2-.77h2.4c-.24.46-.69.77-1.2.77zm7.88-1.99l-1.8-2.86v-6.46c0-2.8-2.86-5.11-5.34-5.5v-.85a.76.76 0 0 0-.74-.78.76.76 0 0 0-.74.78v.85c-2.48.39-5.33 2.7-5.33 5.5v6.46l-1.8 2.86a.82.82 0 0 0-.04.8c.13.26.38.42.65.42h4.47A2.94 2.94 0 0 0 1181 45c1.34 0 2.47-1 2.79-2.33h4.47c.27 0 .52-.16.65-.42a.82.82 0 0 0-.03-.8z"/></defs><g><g transform="translate(-1173 -25)"><use xlink:href="#7l18a"/></g></g></svg>