<svg xmlns="http://www.w3.org/2000/svg" xmlns:xlink="http://www.w3.org/1999/xlink" width="20" height="20" viewBox="0 0 20 20"><defs><path id="vbf2a" d="M176.1 884.2a.78.78 0 1 1 1.56 0 .78.78 0 0 1-1.56 0zm3.4 0a.78.78 0 1 1 1.56 0 .78.78 0 0 1-1.56 0zm3.4 0a.78.78 0 1 1 1.56 0 .78.78 0 0 1-1.56 0zm3.4 0a.78.78 0 1 1 1.56 0 .78.78 0 0 1-1.56 0zm-10.2 3.4a.78.78 0 1 1 1.56 0 .78.78 0 0 1-1.56 0zm3.4 0a.78.78 0 1 1 1.56 0 .78.78 0 0 1-1.56 0zm-3.4 3.4a.78.78 0 1 1 1.56 0 .78.78 0 0 1-1.56 0zm3.4 0a.78.78 0 1 1 1.56 0 .78.78 0 0 1-1.56 0zm7.77 1.05a.78.78 0 0 1-.78-.78v-1.6a.78.78 0 0 1 1.56 0v.82h.36a.78.78 0 1 1 0 1.56zM175.12 896a3.13 3.13 0 0 1-3.12-3.13V880.7c0-1.73 1.4-3.13 3.12-3.13h.98v-.78a.78.78 0 0 1 1.56 0v.78h3.52v-.78a.78.78 0 1 1 1.56 0v.78h3.56v-.78a.78.78 0 0 1 1.56 0v.78h1.02c1.72 0 3.12 1.4 3.12 3.13v4.45a.78.78 0 1 1-1.56 0v-4.45c0-.86-.7-1.57-1.56-1.57h-1.02v.79a.78.78 0 1 1-1.56 0v-.79h-3.56v.79a.78.78 0 1 1-1.56 0v-.79h-3.52v.79a.78.78 0 1 1-1.56 0v-.79h-.98c-.86 0-1.56.7-1.56 1.57v12.18c0 .87.7 1.57 1.56 1.57h5.98a.78.78 0 0 1 0 1.56zm8.99-4.73a3.17 3.17 0 1 0 6.33 0 3.17 3.17 0 0 0-6.33 0zm-1.56 0a4.73 4.73 0 1 1 9.46.01 4.73 4.73 0 0 1-9.46 0z"/></defs><g><g transform="translate(-172 -876)"><use xlink:href="#vbf2a"/></g></g></svg>