<svg xmlns="http://www.w3.org/2000/svg" xmlns:xlink="http://www.w3.org/1999/xlink" width="20" height="20" viewBox="0 0 20 20"><defs><path id="m5saa" d="M1106.04 26.67c-.2 0-.37.16-.37.36v11.33c0 .2.16.36.37.36h2.28c.68.03.9.65.83.95l-.34 2.51 4.02-3.27a.82.82 0 0 1 .53-.2h8.6c.21 0 .37-.15.37-.36V27.04c0-.2-.16-.37-.36-.37h-15.93zm1.25 18.22a.83.83 0 0 1-.42-.83l.5-3.67h-1.33a2.04 2.04 0 0 1-2.04-2.03V27.04c0-1.13.91-2.04 2.04-2.04h15.93c1.12 0 2.03.91 2.03 2.04v11.32c0 1.12-.91 2.03-2.03 2.03h-8.32l-5.43 4.42c-.4.31-.8.15-.93.08z"/></defs><g><g transform="translate(-1104 -25)"><use xlink:href="#m5saa"/></g></g></svg>