<svg xmlns="http://www.w3.org/2000/svg" xmlns:xlink="http://www.w3.org/1999/xlink" width="18" height="20" viewBox="0 0 18 20"><defs><path id="kolma" d="M1246.18 33.33v-7.5c0-.46.37-.83.82-.83.45 0 .82.37.82.83v7.5c0 .46-.37.84-.82.84a.83.83 0 0 1-.82-.84zm-8.18 2.5a9.18 9.18 0 0 1 5.4-8.4c.41-.19.9 0 1.08.43.18.42-.01.91-.43 1.1a7.5 7.5 0 0 0-4.41 6.87c0 4.15 3.3 7.5 7.36 7.5a7.43 7.43 0 0 0 7.36-7.5 7.5 7.5 0 0 0-4.42-6.87.84.84 0 0 1-.42-1.1.81.81 0 0 1 1.08-.43 9.17 9.17 0 0 1 5.4 8.4 9.08 9.08 0 0 1-9 9.17c-4.97 0-9-4.1-9-9.17z"/></defs><g><g transform="translate(-1238 -25)"><use xlink:href="#kolma"/></g></g></svg>