<svg xmlns="http://www.w3.org/2000/svg" xmlns:xlink="http://www.w3.org/1999/xlink" width="20" height="20" viewBox="0 0 20 20"><defs><path id="mduca" d="M190.33 693.33h-16.66v-1.09c0-.23.12-.43.32-.54a14.84 14.84 0 0 1 4.73-1.7h.64a4.92 4.92 0 0 0 2.76.83 4.92 4.92 0 0 0 2.52-.83h.64c1.31.17 2.95.77 4.73 1.7.2.1.32.31.32.54v1.1zm-12.5-12.5a4.32 4.32 0 0 1 4.17-4.16 4.32 4.32 0 0 1 4.17 4.16v3.34c0 .34-.04.68-.12 1.02-1.14.36-2.7.64-4.05.64a.83.83 0 1 0 0 1.67c1.05 0 2.18-.14 3.2-.37a5.4 5.4 0 0 1-1.3 1.36 3.6 3.6 0 0 1-1.83.68H182a2.4 2.4 0 0 1-.44-.05 3.62 3.62 0 0 1-1.52-.68 5.57 5.57 0 0 1-2.2-4.27zm12.95 9.4a18.15 18.15 0 0 0-4.5-1.75 7.4 7.4 0 0 0 1.36-2.77c.6-.24 1.03-.83 1.03-1.52v-2.55c0-.62-.36-1.17-.88-1.45A6.01 6.01 0 0 0 182 675a6.01 6.01 0 0 0-5.8 5.2c-.51.27-.87.82-.87 1.44v2.55c0 .69.43 1.28 1.03 1.52a7.39 7.39 0 0 0 1.36 2.77c-1.36.3-2.89.9-4.5 1.75a2.28 2.28 0 0 0-1.22 2.01v1.93c0 .46.37.83.83.83h18.34c.46 0 .83-.37.83-.83v-1.93c0-.84-.47-1.62-1.22-2.01z"/></defs><g><g transform="translate(-172 -675)"><use xlink:href="#mduca"/></g></g></svg>