<svg xmlns="http://www.w3.org/2000/svg" xmlns:xlink="http://www.w3.org/1999/xlink" width="14" height="16" viewBox="0 0 14 16"><defs><path id="434ba" d="M1044.57 1505.52l-1.05-.05-.23 7.42 1.05.04z"/><path id="434bb" d="M1041.48 1512.9v-7.4h1.05v7.4z"/><path id="434bc" d="M1040.72 1512.89l-.23-7.42-1.05.05.23 7.41z"/><path id="434bd" d="M1045.29 1514.75h-6.58l-.82-11.1h8.22zm-9.56-12.35v1.26h1.1l.87 11.77c.02.32.25.57.53.57h7.54c.27 0 .5-.25.52-.57l.88-11.77h1.11v-1.26z"/><path id="434be" d="M1043.73 1500h-3.45c-.48 0-.88.47-.88 1.04v1.99h1.06v-1.78h3.1v1.78h1.05v-1.99c0-.57-.4-1.04-.88-1.04z"/></defs><g><g transform="translate(-1035 -1500)"><g><g><g><g><use xlink:href="#434ba"/></g><g><use xlink:href="#434bb"/></g><g><use xlink:href="#434bc"/></g><g><use xlink:href="#434bd"/></g></g></g></g><g><g><g><use xlink:href="#434be"/></g></g></g></g></g></svg>