<svg xmlns="http://www.w3.org/2000/svg" xmlns:xlink="http://www.w3.org/1999/xlink" width="20" height="20" viewBox="0 0 20 20"><defs><path id="rw3na" d="M339.7 38.52a6.9 6.9 0 0 1 4.9-11.85 6.9 6.9 0 0 1 6.95 6.94 6.9 6.9 0 0 1-6.94 6.95c-1.85 0-3.6-.73-4.9-2.04zm16.06 5.06l-4.5-4.5a8.55 8.55 0 0 0 1.96-5.47c0-2.3-.9-4.46-2.52-6.09A8.54 8.54 0 0 0 344.6 25c-2.3 0-4.46.9-6.09 2.52a8.54 8.54 0 0 0-2.52 6.1c0 2.29.9 4.45 2.52 6.08a8.56 8.56 0 0 0 6.1 2.52c2.01 0 3.93-.69 5.46-1.95l4.5 4.49a.83.83 0 1 0 1.18-1.18z"/></defs><g><g transform="translate(-336 -25)"><use xlink:href="#rw3na"/></g></g></svg>