<svg xmlns="http://www.w3.org/2000/svg" xmlns:xlink="http://www.w3.org/1999/xlink" width="72" height="23" viewBox="0 0 72 23"><defs><path id="7twga" d="M74.76 40.28c-.06.22-.12.53-.37.8a2.2 2.2 0 0 1-1.5.83l-3.7.01v-4.79h3.55c.13.03.31.12.53.22.28.12.53.24.78.46.12.12.31.28.47.53.18.34.24.61.28.83.03.12.09.56-.04 1.11zm-1.05-9.42c-.03.37-.07.99-.5 1.48-.19.28-.37.4-.47.43-.22.13-.4.16-.53.16-.46.03-1.58.03-3.05 0v-4.45c.88-.03 1.72-.03 2.59-.03.25 0 .46.06.62.1.25.09.43.15.47.18l.09.06c.22.12.34.3.4.37l.03.03c.2.28.28.62.28.68.1.4.07.84.07.99zm6.37 9.02c0-.74-.09-1.42-.28-2.04a5.04 5.04 0 0 0-4.07-3.27c.5-.19.93-.4 1.3-.71.38-.28.72-.62.97-1.02s.47-.84.59-1.3a5.7 5.7 0 0 0-.31-4.02 4.55 4.55 0 0 0-1.5-1.76 7.36 7.36 0 0 0-2.39-1.02c-.93-.21-2.08-.34-3.45-.34h-5.6c-.38 0-.72.13-.97.34-.25.22-.37.59-.37 1.08v19.25c0 .5.12.87.37 1.08.28.22.6.34.97.34h5.9c.91 0 1.72-.03 2.44-.15.71-.1 1.4-.28 2.05-.5a7.86 7.86 0 0 0 1.77-.86 5.91 5.91 0 0 0 2.58-5.1z"/><path id="7twgc" d="M92.59 36.33c.03-.19.19-1.15-.47-1.92-.37-.46-.87-.62-1.09-.7-.12-.04-.71-.26-1.46-.1-.22.03-.53.1-.84.3-.5.32-.74.78-.84.97-.3.61-.25 1.17-.22 1.45h4.92zm4.88 1.64c.04.09.13.67-.24 1.23-.35.5-.88.65-1 .65-2.92 0-5.82 0-8.74.03 0 .28.03.74.22 1.24.09.24.28.74.74 1.17.66.59 1.5.65 2.02.71.1 0 .47 0 1.19-.03.87-.03 1.33-.06 1.65-.12.34-.07.8-.16 1.33-.4.31-.16.56-.31 1.03-.4.47-.1.62 0 .72.06.15.09.21.27.28.43.09.21.09.37.09.46v.37c0 .31.03.31.03.71 0 .25 0 .47-.03.65 0 .19-.03.31-.06.46-.03.13-.07.22-.1.31-.03.1-.09.16-.18.25-.07.1-.28.19-.6.31-.34.12-.74.28-1.24.4a17.43 17.43 0 0 1-3.86.5 11.3 11.3 0 0 1-3.54-.5 6.42 6.42 0 0 1-2.55-1.54 6.34 6.34 0 0 1-1.53-2.6c-.34-1.05-.5-2.28-.5-3.67 0-1.33.19-2.57.53-3.62a7.88 7.88 0 0 1 1.53-2.75 6.94 6.94 0 0 1 2.45-1.73c.97-.4 2.06-.59 3.24-.59 1.27 0 2.36.19 3.27.56a5.79 5.79 0 0 1 3.48 3.9c.28.89.4 1.88.4 2.93v.62h-.03z"/><path id="7twge" d="M136 44.63a5.48 5.48 0 0 0-.14-1.24c-.03-.12-.09-.2-.15-.23a.37.37 0 0 0-.2-.06.74.74 0 0 0-.27.06 6.4 6.4 0 0 1-.86.27c-.18.04-.4.06-.63.06-.68 0-1.16-.21-1.42-.61-.27-.4-.4-1.02-.4-1.83v-6.98h3.4c.21 0 .38-.13.5-.4a6.37 6.37 0 0 0 .13-2.13 1.9 1.9 0 0 0-.13-.53.64.64 0 0 0-.22-.27.54.54 0 0 0-.3-.09h-3.38v-3.32c0-.11-.04-.21-.11-.3a.8.8 0 0 0-.35-.23c-.16-.06-.39-.1-.68-.13a11.43 11.43 0 0 0-2.81.13.76.76 0 0 0-.35.23.5.5 0 0 0-.1.3v3.32h-1.87a.56.56 0 0 0-.3.09.62.62 0 0 0-.22.27 2 2 0 0 0-.14.53c-.03.22-.04.5-.04.82 0 .61.06 1.05.18 1.31.11.26.28.4.5.4h1.9v7.61c0 .91.1 1.7.29 2.37.2.67.5 1.22.92 1.66.42.44.95.76 1.6.97.63.21 1.4.32 2.26.32a9.18 9.18 0 0 0 1.86-.2c.27-.05.51-.13.72-.21.2-.08.35-.18.46-.28.1-.1.19-.29.25-.55.07-.26.1-.64.1-1.13zm-13.68-18.46c0-.82-.17-1.38-.52-1.7-.35-.31-1.02-.47-2-.47-1 0-1.67.16-2.02.49-.35.33-.53.91-.53 1.76 0 .81.17 1.37.52 1.69.34.3 1 .46 2 .46.98 0 1.65-.16 2.01-.48.36-.33.54-.9.54-1.75zm-.36 5.08c0-.1-.03-.2-.1-.29a.73.73 0 0 0-.36-.21c-.17-.07-.4-.11-.67-.15a9.13 9.13 0 0 0-2.8.15.73.73 0 0 0-.35.21.44.44 0 0 0-.11.3V46.1c0 .1.03.2.1.29.07.08.2.15.36.2.17.06.4.1.67.13a11.07 11.07 0 0 0 2.8-.12c.17-.06.3-.13.36-.21.07-.09.1-.19.1-.3zm-7.86-4.36c0-.33 0-.62-.04-.85a1.87 1.87 0 0 0-.14-.56.82.82 0 0 0-.22-.3.46.46 0 0 0-.28-.09h-10.64c-.39 0-.7.11-.97.33-.26.21-.4.56-.4 1.05v19.56c0 .12.04.22.12.32.08.08.2.16.37.22.18.06.42.1.71.14a10.03 10.03 0 0 0 2.93-.14.79.79 0 0 0 .38-.22c.07-.1.1-.2.1-.32v-8.04h6.95c.1 0 .2-.03.28-.09a.78.78 0 0 0 .22-.3c.06-.15.1-.34.13-.56a6.45 6.45 0 0 0 0-1.67c-.03-.22-.07-.4-.13-.53a.67.67 0 0 0-.22-.28.46.46 0 0 0-.28-.08h-6.94v-5.8h7.4c.1 0 .19-.04.27-.1a.9.9 0 0 0 .22-.3c.06-.14.11-.32.14-.55.03-.23.04-.5.04-.84z"/><linearGradient id="7twgb" x1="72.04" x2="72.04" y1="24.4" y2="46.49" gradientUnits="userSpaceOnUse"><stop offset="0" stop-color="#78d822"/><stop offset="1" stop-color="#46c81f"/></linearGradient><linearGradient id="7twgd" x1="90.06" x2="90.06" y1="29.96" y2="46.96" gradientUnits="userSpaceOnUse"><stop offset="0" stop-color="#78d822"/><stop offset="1" stop-color="#46c81f"/></linearGradient></defs><g><g transform="translate(-64 -24)"><g><use fill="url(#7twgb)" xlink:href="#7twga"/></g><g><use fill="url(#7twgd)" xlink:href="#7twgc"/></g><g><use fill="#31373d" xlink:href="#7twge"/></g></g></g></svg>